<svg width="24" height="24" viewBox="0 0 24 24" fill="none" xmlns="http://www.w3.org/2000/svg">
    <g clip-path="url(#clip0_3002_237)">
        <path d="M16.75 3.56V2C16.75 1.80109 16.671 1.61032 16.5303 1.46967C16.3897 1.32902 16.1989 1.25 16 1.25C15.8011 1.25 15.6103 1.32902 15.4697 1.46967C15.329 1.61032 15.25 1.80109 15.25 2V3.5H8.74999V2C8.74999 1.80109 8.67097 1.61032 8.53032 1.46967C8.38966 1.32902 8.1989 1.25 7.99999 1.25C7.80107 1.25 7.61031 1.32902 7.46966 1.46967C7.329 1.61032 7.24999 1.80109 7.24999 2V3.56C6.12942 3.56976 5.05811 4.0219 4.26938 4.81793C3.48066 5.61396 3.03842 6.6894 3.03899 7.81C3.03489 7.87814 3.04479 7.9464 3.06808 8.01057C3.09137 8.07474 3.12755 8.13346 3.17439 8.18311C3.22123 8.23277 3.27775 8.2723 3.34045 8.29928C3.40316 8.32627 3.47072 8.34012 3.53899 8.34H20.459C20.5273 8.34012 20.5948 8.32627 20.6575 8.29928C20.7202 8.2723 20.7767 8.23277 20.8236 8.18311C20.8704 8.13346 20.9066 8.07474 20.9299 8.01057C20.9532 7.9464 20.9631 7.87814 20.959 7.81C20.9596 6.68974 20.5176 5.6146 19.7293 4.81863C18.941 4.02265 17.8702 3.57028 16.75 3.56Z"
              fill="#0B032D"/>
        <path d="M20 9.84009C20.2652 9.84009 20.5196 9.94544 20.7071 10.133C20.8946 10.3205 21 10.5749 21 10.8401V17.0001C21 20.0001 19.5 22.0001 16 22.0001H8C4.5 22.0001 3 20.0001 3 17.0001V10.8401C3 10.5749 3.10536 10.3205 3.29289 10.133C3.48043 9.94544 3.73478 9.84009 4 9.84009H20Z"
              fill="#C4C2CC"/>
        <path d="M8.5 15.0009C8.23527 14.997 7.98174 14.8935 7.79 14.7109C7.60743 14.5192 7.50388 14.2656 7.5 14.0009C7.50363 13.7358 7.6072 13.4819 7.79 13.2899C7.93062 13.1511 8.1092 13.0571 8.30319 13.0198C8.49718 12.9824 8.69789 13.0033 8.88 13.0799C9.0036 13.1258 9.11607 13.1974 9.21 13.2899C9.3928 13.4819 9.49637 13.7358 9.5 14.0009C9.49612 14.2656 9.39257 14.5192 9.21 14.7109C9.01826 14.8935 8.76473 14.997 8.5 15.0009Z"
              fill="#0B032D"/>
        <path d="M12 15.0009C11.7353 14.997 11.4817 14.8935 11.29 14.7109C11.1074 14.5192 11.0039 14.2656 11 14.0009C11.0036 13.7358 11.1072 13.4819 11.29 13.2899C11.3839 13.1974 11.4964 13.1258 11.62 13.0799C11.8021 13.0033 12.0028 12.9824 12.1968 13.0198C12.3908 13.0571 12.5694 13.1511 12.71 13.2899C12.8928 13.4819 12.9964 13.7358 13 14.0009C12.9961 14.2656 12.8926 14.5192 12.71 14.7109L12.56 14.8309C12.5043 14.8688 12.4437 14.899 12.38 14.9209C12.3233 14.9498 12.2627 14.97 12.2 14.9809C12.1339 14.9925 12.0671 14.9992 12 15.0009Z"
              fill="#0B032D"/>
        <path d="M15.5 14.9999C15.2353 14.996 14.9817 14.8925 14.79 14.7099C14.6074 14.5181 14.5039 14.2646 14.5 13.9999C14.5039 13.7352 14.6074 13.4816 14.79 13.2899C14.8856 13.1995 14.9976 13.1282 15.12 13.0799C15.3024 13 15.5051 12.979 15.7 13.0199C15.7627 13.0308 15.8233 13.051 15.88 13.0799C15.9437 13.1017 16.0043 13.132 16.06 13.1699L16.21 13.2899C16.3926 13.4816 16.4961 13.7352 16.5 13.9999C16.4961 14.2646 16.3926 14.5181 16.21 14.7099L16.06 14.8299C16.0043 14.8678 15.9437 14.898 15.88 14.9199C15.8233 14.9488 15.7627 14.969 15.7 14.9799C15.6339 14.991 15.567 14.9977 15.5 14.9999Z"
              fill="#0B032D"/>
        <path d="M8.5 18.4999C8.36932 18.4983 8.24022 18.4711 8.12 18.4199C7.99762 18.3716 7.88561 18.3003 7.79 18.2099C7.60743 18.0181 7.50388 17.7646 7.5 17.4999C7.50388 17.2352 7.60743 16.9816 7.79 16.7899C7.88561 16.6995 7.99762 16.6282 8.12 16.5799C8.30237 16.5 8.50514 16.479 8.7 16.5199C8.76266 16.5308 8.82334 16.551 8.88 16.5799C8.94374 16.6017 9.00427 16.632 9.06 16.6699L9.21 16.7899C9.39257 16.9816 9.49612 17.2352 9.5 17.4999C9.49612 17.7646 9.39257 18.0181 9.21 18.2099C9.16249 18.2529 9.11239 18.293 9.06 18.3299C9.00427 18.3678 8.94374 18.398 8.88 18.4199C8.82334 18.4488 8.76266 18.469 8.7 18.4799C8.63392 18.4915 8.56707 18.4982 8.5 18.4999Z"
              fill="#0B032D"/>
        <path d="M12 18.4999C11.7357 18.4969 11.4822 18.3944 11.29 18.2129C11.1067 18.0204 11.0031 17.7657 11 17.4999C11.0041 17.2356 11.1077 16.9824 11.29 16.7909C11.4834 16.6125 11.7369 16.5134 12 16.5134C12.2631 16.5134 12.5166 16.6125 12.71 16.7909C12.8923 16.9824 12.9959 17.2356 13 17.4999C12.9961 17.7647 12.8926 18.0182 12.71 18.2099C12.5183 18.3925 12.2647 18.4961 12 18.4999Z"
              fill="#0B032D"/>
        <path d="M15.5 18.4999C15.2357 18.4969 14.9822 18.3944 14.79 18.2129C14.6067 18.0204 14.5031 17.7657 14.5 17.4999C14.5041 17.2356 14.6077 16.9824 14.79 16.7909C14.9834 16.6125 15.2369 16.5134 15.5 16.5134C15.7631 16.5134 16.0166 16.6125 16.21 16.7909C16.3923 16.9824 16.4959 17.2356 16.5 17.4999C16.4961 17.7647 16.3926 18.0182 16.21 18.2099C16.0183 18.3925 15.7647 18.4961 15.5 18.4999Z"
              fill="#0B032D"/>
    </g>
    <defs>
        <clipPath id="clip0_3002_237">
            <rect width="24" height="24" fill="white"/>
        </clipPath>
    </defs>
</svg>
