<svg width="20" height="20" viewBox="0 0 20 20" fill="none" xmlns="http://www.w3.org/2000/svg">
    <g clip-path="url(#clip0_3015_1016)">
        <path d="M10 19.0084C9.70483 19.0017 9.41536 18.9258 9.15484 18.7868C8.89433 18.6479 8.67004 18.4498 8.50001 18.2084L7.25001 16.5417C7.20193 16.501 7.14477 16.4724 7.08334 16.4584H6.66667C3.19167 16.4584 1.04167 15.5167 1.04167 10.8334V6.66675C1.04167 2.98341 2.98334 1.04175 6.66667 1.04175H13.3333C17.0167 1.04175 18.9583 2.98341 18.9583 6.66675V10.8334C18.9583 14.5167 17.0167 16.4584 13.3333 16.4584H12.9167C12.8845 16.4591 12.8528 16.4669 12.824 16.4813C12.7951 16.4957 12.7699 16.5164 12.75 16.5417L11.5 18.2084C11.33 18.4498 11.1057 18.6479 10.8452 18.7868C10.5847 18.9258 10.2952 19.0017 10 19.0084ZM6.66667 2.29175C3.68334 2.29175 2.29167 3.68341 2.29167 6.66675V10.8334C2.29167 14.6001 3.58334 15.2084 6.66667 15.2084H7.08334C7.30834 15.2159 7.52906 15.2719 7.73042 15.3726C7.93177 15.4733 8.10901 15.6163 8.25001 15.7917L9.5 17.4584C9.55088 17.5459 9.62383 17.6186 9.71157 17.6691C9.79932 17.7195 9.89878 17.7461 10 17.7461C10.1012 17.7461 10.2007 17.7195 10.2884 17.6691C10.3762 17.6186 10.4491 17.5459 10.5 17.4584L11.75 15.7917C11.8859 15.6107 12.0621 15.4638 12.2646 15.3626C12.4671 15.2613 12.6903 15.2085 12.9167 15.2084H13.3333C16.3167 15.2084 17.7083 13.8167 17.7083 10.8334V6.66675C17.7083 3.68341 16.3167 2.29175 13.3333 2.29175H6.66667Z"
              fill="#0B032D"/>
        <path d="M10 10.1117C9.81312 10.1117 9.63041 10.0563 9.47501 9.95242C9.31961 9.84858 9.19848 9.70099 9.12696 9.52832C9.05543 9.35564 9.03672 9.16563 9.07318 8.98232C9.10964 8.79901 9.19965 8.63062 9.33181 8.49846C9.46397 8.3663 9.63235 8.2763 9.81566 8.23984C9.99898 8.20337 10.189 8.22209 10.3617 8.29361C10.5343 8.36514 10.6819 8.48626 10.7858 8.64167C10.8896 8.79707 10.945 8.97978 10.945 9.16668C10.9455 9.2909 10.9213 9.41398 10.874 9.52884C10.8267 9.64369 10.7571 9.74804 10.6692 9.83588C10.5814 9.92372 10.477 9.99331 10.3622 10.0406C10.2473 10.088 10.1242 10.1121 10 10.1117Z"
              fill="#0B032D"/>
        <path d="M13.78 10.1117C13.5931 10.1117 13.4104 10.0563 13.255 9.95242C13.0996 9.84858 12.9784 9.70099 12.9069 9.52832C12.8354 9.35564 12.8167 9.16563 12.8531 8.98232C12.8896 8.79901 12.9796 8.63062 13.1118 8.49846C13.2439 8.3663 13.4123 8.2763 13.5956 8.23984C13.7789 8.20337 13.9689 8.22209 14.1416 8.29361C14.3143 8.36514 14.4619 8.48626 14.5657 8.64167C14.6696 8.79707 14.725 8.97978 14.725 9.16668C14.7254 9.2909 14.7013 9.41398 14.6539 9.52884C14.6066 9.64369 14.537 9.74804 14.4492 9.83588C14.3613 9.92372 14.257 9.99331 14.1421 10.0406C14.0273 10.088 13.9042 10.1121 13.78 10.1117Z"
              fill="#0B032D"/>
        <path d="M6.22001 10.1117C6.03311 10.1117 5.8504 10.0563 5.695 9.95242C5.53959 9.84858 5.41847 9.70099 5.34694 9.52832C5.27542 9.35564 5.2567 9.16563 5.29317 8.98232C5.32963 8.79901 5.41963 8.63062 5.55179 8.49846C5.68395 8.3663 5.85234 8.2763 6.03565 8.23984C6.21896 8.20337 6.40897 8.22209 6.58165 8.29361C6.75432 8.36514 6.90191 8.48626 7.00575 8.64167C7.10959 8.79707 7.16501 8.97978 7.16501 9.16668C7.16545 9.2909 7.14131 9.41398 7.09397 9.52884C7.04664 9.64369 6.97705 9.74804 6.88921 9.83588C6.80137 9.92372 6.69702 9.99331 6.58217 10.0406C6.46731 10.088 6.34423 10.1121 6.22001 10.1117Z"
              fill="#0B032D"/>
    </g>
    <defs>
        <clipPath id="clip0_3015_1016">
            <rect width="20" height="20" fill="white"/>
        </clipPath>
    </defs>
</svg>
