<svg width="18" height="19" viewBox="0 0 18 19" fill="none" xmlns="http://www.w3.org/2000/svg">
    <g clip-path="url(#clip0_3127_135)">
        <path d="M3.8625 17.5625C3.71361 17.5615 3.57111 17.5019 3.46583 17.3967C3.36056 17.2914 3.30098 17.1489 3.3 17V2C3.30098 1.85112 3.36056 1.70862 3.46583 1.60334C3.57111 1.49806 3.71361 1.43848 3.8625 1.4375C4.01138 1.43848 4.15388 1.49806 4.25916 1.60334C4.36443 1.70862 4.42401 1.85112 4.425 2V17C4.42401 17.1489 4.36443 17.2914 4.25916 17.3967C4.15388 17.5019 4.01138 17.5615 3.8625 17.5625Z"
              fill="#0B032D"/>
        <path d="M12.2625 13.0625H3.8625C3.71331 13.0625 3.57024 13.0032 3.46475 12.8977C3.35926 12.7923 3.3 12.6492 3.3 12.5C3.3 12.3508 3.35926 12.2077 3.46475 12.1023C3.57024 11.9968 3.71331 11.9375 3.8625 11.9375H12.2625C13.08 11.9375 13.4625 11.72 13.5375 11.5325C13.6125 11.345 13.5 10.925 12.915 10.3475L12.015 9.4475C11.8267 9.27559 11.6752 9.06737 11.5695 8.83536C11.4638 8.60336 11.4062 8.35237 11.4 8.0975C11.3907 7.81152 11.4405 7.5267 11.5464 7.26086C11.6522 6.99502 11.8117 6.75387 12.015 6.5525L12.915 5.6525C13.47 5.0975 13.6425 4.6475 13.56 4.4525C13.4775 4.2575 13.05 4.0625 12.2625 4.0625H3.8625C3.71331 4.0625 3.57024 4.00324 3.46475 3.89775C3.35926 3.79226 3.3 3.64918 3.3 3.5C3.3 3.35082 3.35926 3.20774 3.46475 3.10225C3.57024 2.99676 3.71331 2.9375 3.8625 2.9375H12.2625C13.905 2.9375 14.43 3.62 14.6025 4.025C14.775 4.43 14.88 5.285 13.71 6.455L12.81 7.355C12.7169 7.44844 12.6437 7.55972 12.5948 7.68215C12.5458 7.80459 12.5221 7.93566 12.525 8.0675C12.5267 8.17482 12.5502 8.28066 12.5941 8.37864C12.6379 8.47661 12.7012 8.56467 12.78 8.6375L13.71 9.56C14.8575 10.7075 14.745 11.5625 14.58 11.975C14.4075 12.3725 13.875 13.0625 12.2625 13.0625Z"
              fill="#0B032D"/>
    </g>
    <defs>
        <clipPath id="clip0_3127_135">
            <rect width="18" height="18" fill="white" transform="translate(0 0.5)"/>
        </clipPath>
    </defs>
</svg>
