<svg width="24" height="24" viewBox="0 0 24 24" fill="none" xmlns="http://www.w3.org/2000/svg">
    <g clip-path="url(#clip0_3015_1080)">
        <path d="M19.5885 13.235L18.5229 14.3006C18.4532 14.3703 18.3706 14.4255 18.2796 14.4632C18.1886 14.5009 18.0911 14.5203 17.9926 14.5203C17.8941 14.5203 17.7965 14.5009 17.7055 14.4632C17.6146 14.4255 17.5319 14.3703 17.4622 14.3006C17.3926 14.231 17.3373 14.1483 17.2997 14.0573C17.262 13.9663 17.2426 13.8688 17.2426 13.7703C17.2426 13.6718 17.262 13.5743 17.2997 13.4833C17.3373 13.3923 17.3926 13.3096 17.4622 13.2399L18.5278 12.1743C19.4171 11.285 19.9167 10.0789 19.9167 8.82124C19.9167 7.56358 19.4171 6.35744 18.5278 5.46814C17.6385 4.57884 16.4324 4.07924 15.1747 4.07924C13.9171 4.07924 12.7109 4.57884 11.8216 5.46814L10.7631 6.52668C10.6935 6.59632 10.6108 6.65157 10.5198 6.68926C10.4288 6.72695 10.3313 6.74635 10.2328 6.74635C10.1343 6.74635 10.0368 6.72695 9.94576 6.68926C9.85476 6.65157 9.77208 6.59632 9.70244 6.52668C9.6328 6.45703 9.57755 6.37435 9.53986 6.28336C9.50217 6.19237 9.48277 6.09484 9.48277 5.99635C9.48277 5.89786 9.50217 5.80033 9.53986 5.70933C9.57755 5.61834 9.6328 5.53566 9.70244 5.46602L10.7631 4.40536C11.9331 3.23532 13.5201 2.578 15.1747 2.578C16.8294 2.578 18.4163 3.23532 19.5864 4.40536C20.7564 5.5754 21.4137 7.16231 21.4137 8.817C21.4137 10.4717 20.7564 12.0586 19.5864 13.2286L19.5885 13.235Z"
              fill="#0B032D"/>
        <path d="M14.2941 18.5292L13.2335 19.5898C12.0633 20.7597 10.4762 21.4168 8.82155 21.4165C7.16686 21.4162 5.58005 20.7586 4.4102 19.5884C3.24035 18.4182 2.58328 16.8312 2.58355 15.1765C2.58381 13.5218 3.24139 11.935 4.41161 10.7651L5.47227 9.70448C5.61338 9.56523 5.80365 9.48715 6.0019 9.48715C6.20014 9.48715 6.39041 9.56523 6.53152 9.70448C6.67077 9.84559 6.74885 10.0359 6.74885 10.2341C6.74885 10.4324 6.67077 10.6226 6.53152 10.7637L5.47086 11.8244C4.58156 12.7137 4.08196 13.9198 4.08196 15.1775C4.08196 16.4351 4.58156 17.6413 5.47086 18.5306C6.36016 19.4199 7.5663 19.9195 8.82396 19.9195C10.0816 19.9195 11.2878 19.4199 12.1771 18.5306L13.2377 17.4699C13.3784 17.3293 13.5691 17.2503 13.7681 17.2503C13.967 17.2503 14.1577 17.3293 14.2984 17.4699C14.439 17.6106 14.5181 17.8013 14.5181 18.0003C14.5181 18.1992 14.439 18.3899 14.2984 18.5306L14.2941 18.5292Z"
              fill="#0B032D"/>
        <path d="M15.3552 9.70806L9.70826 15.355C9.56691 15.4945 9.37623 15.5726 9.17764 15.5723C8.97905 15.5721 8.78858 15.4935 8.6476 15.3536C8.50835 15.2125 8.43027 15.0222 8.43027 14.824C8.43027 14.6257 8.50835 14.4355 8.6476 14.2944L14.2946 8.6474C14.4357 8.50815 14.6259 8.43007 14.8242 8.43007C15.0224 8.43007 15.2127 8.50814 15.3538 8.6474C15.4937 8.78838 15.5723 8.97885 15.5725 9.17744C15.5728 9.37603 15.4947 9.5667 15.3552 9.70806Z"
              fill="#0B032D"/>
    </g>
    <defs>
        <clipPath id="clip0_3015_1080">
            <rect width="24" height="24" fill="white"/>
        </clipPath>
    </defs>
</svg>
