<svg width="28" height="28" viewBox="0 0 28 28" fill="none" xmlns="http://www.w3.org/2000/svg">
    <g clip-path="url(#clip0_3014_412)">
        <path d="M17.3542 5.25H3.35417C3.12258 5.24847 2.90091 5.15579 2.73714 4.99203C2.57338 4.82826 2.4807 4.60659 2.47917 4.375C2.4807 4.14341 2.57338 3.92174 2.73714 3.75797C2.90091 3.59421 3.12258 3.50153 3.35417 3.5H17.3542C17.5858 3.50153 17.8074 3.59421 17.9712 3.75797C18.135 3.92174 18.2276 4.14341 18.2292 4.375C18.2276 4.60659 18.135 4.82826 17.9712 4.99203C17.8074 5.15579 17.5858 5.24847 17.3542 5.25Z"
              fill="#0B032D"/>
        <path d="M17.3542 11.6667H3.35417C3.12258 11.6652 2.90091 11.5725 2.73714 11.4088C2.57338 11.245 2.4807 11.0233 2.47917 10.7917C2.4807 10.5602 2.57338 10.3385 2.73714 10.1747C2.90091 10.011 3.12258 9.91828 3.35417 9.91675H17.3542C17.5858 9.91828 17.8074 10.011 17.9712 10.1747C18.135 10.3385 18.2276 10.5602 18.2292 10.7917C18.2276 11.0233 18.135 11.245 17.9712 11.4088C17.8074 11.5725 17.5858 11.6652 17.3542 11.6667Z"
              fill="#C4C2CC"/>
        <path d="M17.3542 18.0833H3.35417C3.12258 18.0817 2.90091 17.989 2.73714 17.8253C2.57338 17.6615 2.4807 17.4398 2.47917 17.2083C2.4807 16.9767 2.57338 16.755 2.73714 16.5912C2.90091 16.4275 3.12258 16.3348 3.35417 16.3333H17.3542C17.5858 16.3348 17.8074 16.4275 17.9712 16.5912C18.135 16.755 18.2276 16.9767 18.2292 17.2083C18.2276 17.4398 18.135 17.6615 17.9712 17.8253C17.8074 17.989 17.5858 18.0817 17.3542 18.0833Z"
              fill="#0B032D"/>
        <path d="M17.3542 24.5H3.35417C3.12258 24.4985 2.90091 24.4058 2.73714 24.242C2.57338 24.0783 2.4807 23.8566 2.47917 23.625C2.4807 23.3934 2.57338 23.1717 2.73714 23.008C2.90091 22.8442 3.12258 22.7515 3.35417 22.75H17.3542C17.5858 22.7515 17.8074 22.8442 17.9712 23.008C18.135 23.1717 18.2276 23.3934 18.2292 23.625C18.2276 23.8566 18.135 24.0783 17.9712 24.242C17.8074 24.4058 17.5858 24.4985 17.3542 24.5Z"
              fill="#C4C2CC"/>
        <path d="M25.5208 17.2083C25.5208 17.5544 25.4182 17.8927 25.2259 18.1805C25.0336 18.4683 24.7603 18.6926 24.4405 18.825C24.1208 18.9575 23.7689 18.9921 23.4294 18.9246C23.09 18.8571 22.7781 18.6904 22.5334 18.4457C22.2887 18.2009 22.122 17.8891 22.0545 17.5497C21.9869 17.2102 22.0216 16.8583 22.154 16.5386C22.2865 16.2188 22.5108 15.9455 22.7986 15.7532C23.0864 15.5609 23.4247 15.4583 23.7708 15.4583C24.235 15.4583 24.6801 15.6426 25.0083 15.9708C25.3365 16.299 25.5208 16.7441 25.5208 17.2083Z"
              fill="#0B032D"/>
        <path d="M25.5208 23.625C25.5208 23.9711 25.4182 24.3095 25.2259 24.5972C25.0336 24.885 24.7603 25.1093 24.4405 25.2418C24.1208 25.3742 23.7689 25.4089 23.4294 25.3414C23.09 25.2738 22.7781 25.1072 22.5334 24.8624C22.2887 24.6177 22.122 24.3059 22.0545 23.9664C21.9869 23.6269 22.0216 23.2751 22.154 22.9553C22.2865 22.6355 22.5108 22.3622 22.7986 22.1699C23.0864 21.9776 23.4247 21.875 23.7708 21.875C24.235 21.875 24.6801 22.0594 25.0083 22.3876C25.3365 22.7158 25.5208 23.1609 25.5208 23.625Z"
              fill="#C4C2CC"/>
        <path d="M25.5208 4.375C25.5208 4.72112 25.4182 5.05946 25.2259 5.34725C25.0336 5.63503 24.7603 5.85934 24.4405 5.99179C24.1208 6.12424 23.7689 6.1589 23.4294 6.09137C23.09 6.02385 22.7781 5.85718 22.5334 5.61244C22.2887 5.36769 22.122 5.05587 22.0545 4.71641C21.9869 4.37694 22.0216 4.02507 22.154 3.7053C22.2865 3.38553 22.5108 3.11222 22.7986 2.91993C23.0864 2.72763 23.4247 2.625 23.7708 2.625C24.235 2.625 24.6801 2.80937 25.0083 3.13756C25.3365 3.46575 25.5208 3.91087 25.5208 4.375Z"
              fill="#0B032D"/>
        <path d="M25.5208 10.7917C25.5208 11.1379 25.4182 11.4762 25.2259 11.764C25.0336 12.0518 24.7603 12.2761 24.4405 12.4085C24.1208 12.541 23.7689 12.5756 23.4294 12.5081C23.09 12.4406 22.7781 12.2739 22.5334 12.0292C22.2887 11.7844 22.122 11.4726 22.0545 11.1332C21.9869 10.7937 22.0216 10.4418 22.154 10.1221C22.2865 9.80228 22.5108 9.52897 22.7986 9.33668C23.0864 9.14438 23.4247 9.04175 23.7708 9.04175C24.235 9.04175 24.6801 9.22612 25.0083 9.55431C25.3365 9.8825 25.5208 10.3276 25.5208 10.7917Z"
              fill="#C4C2CC"/>
    </g>
    <defs>
        <clipPath id="clip0_3014_412">
            <rect width="28" height="28" fill="white"/>
        </clipPath>
    </defs>
</svg>
