<svg width="24" height="24" viewBox="0 0 24 24" fill="none" xmlns="http://www.w3.org/2000/svg">
    <g clip-path="url(#clip0_3015_1078)">
        <path d="M14.586 19.1711C14.5852 18.7598 14.6569 18.3515 14.7979 17.9651L8.53619 14.387C8.20536 14.7644 7.79761 15.0667 7.34039 15.2737C6.88318 15.4806 6.3867 15.5876 5.88483 15.5872C5.42122 15.5873 4.96209 15.496 4.53375 15.3186C4.10541 15.1413 3.71655 14.8813 3.38873 14.5535C3.06092 14.2256 2.80095 13.8363 2.6236 13.408C2.44624 12.9796 2.35491 12.5205 2.35504 12.0569C2.35491 11.5933 2.44624 11.1341 2.6236 10.7058C2.80095 10.2775 3.06092 9.88861 3.38873 9.56079C3.71655 9.23297 4.10541 8.97301 4.53375 8.79565C4.96209 8.6183 5.42122 8.52697 5.88483 8.5271C6.34908 8.52586 6.80928 8.61641 7.23834 8.7937C7.66741 8.97099 8.05686 9.23123 8.38483 9.55981L14.7608 5.91724C14.647 5.56513 14.5894 5.19696 14.5899 4.8269C14.5912 3.8911 14.9638 2.99399 15.6255 2.33228C16.2873 1.67056 17.1844 1.29844 18.1202 1.29712C18.5838 1.29699 19.0429 1.38832 19.4713 1.56567C19.8996 1.74303 20.2885 2.00299 20.6163 2.33081C20.9441 2.65863 21.2041 3.04749 21.3814 3.47583C21.5588 3.90417 21.6501 4.3633 21.65 4.8269C21.6486 5.76271 21.2765 6.65982 20.6148 7.32153C19.9531 7.98325 19.056 8.35585 18.1202 8.35718C17.6311 8.35752 17.1469 8.2558 16.6993 8.05884C16.2516 7.86187 15.8502 7.57393 15.5201 7.21313L9.20123 10.825C9.34795 11.2191 9.4225 11.6363 9.42194 12.0569C9.42226 12.4007 9.37213 12.7428 9.27301 13.072L15.6089 16.6921C15.9367 16.3581 16.3279 16.0925 16.7593 15.9114C17.1908 15.7302 17.6542 15.637 18.1221 15.637C18.5857 15.6368 19.0449 15.7282 19.4732 15.9055C19.9015 16.0829 20.2904 16.3428 20.6182 16.6707C20.946 16.9985 21.206 17.3878 21.3834 17.8162C21.5607 18.2445 21.652 18.7036 21.6519 19.1672C21.6472 20.102 21.2738 20.997 20.6129 21.658C19.9519 22.3189 19.0569 22.6923 18.1221 22.697C17.6584 22.6979 17.1989 22.6077 16.7701 22.4309C16.3413 22.2542 15.9515 21.9942 15.6231 21.6667C15.2947 21.3393 15.034 20.9505 14.856 20.5222C14.6781 20.0939 14.5864 19.6349 14.586 19.1711ZM16.086 19.1711C16.0886 19.7087 16.3035 20.2236 16.6837 20.6038C17.0638 20.9839 17.5782 21.1983 18.1158 21.2009C18.6539 21.2001 19.1698 20.9862 19.5504 20.6057C19.9309 20.2252 20.1453 19.7093 20.1461 19.1711C20.1453 18.633 19.9309 18.1171 19.5504 17.7366C19.1698 17.356 18.6539 17.1417 18.1158 17.1409C17.5774 17.1411 17.0615 17.3555 16.6807 17.7361C16.2999 18.1167 16.0865 18.6327 16.086 19.1711ZM3.86578 12.0598C3.86789 12.5976 4.08271 13.1127 4.46295 13.4929C4.84319 13.8732 5.35832 14.088 5.89606 14.0901C6.43437 14.0898 6.95047 13.876 7.33112 13.4954C7.71176 13.1147 7.92558 12.5981 7.92584 12.0598C7.92531 11.5216 7.71121 11.0058 7.33063 10.6252C6.95004 10.2447 6.43428 10.0306 5.89606 10.03C5.35766 10.0303 4.84131 10.2441 4.46051 10.6248C4.07971 11.0054 3.86631 11.5214 3.86578 12.0598ZM16.086 4.82983C16.0865 5.36806 16.3006 5.88431 16.6812 6.26489C17.0618 6.64548 17.5776 6.85958 18.1158 6.86011C18.6539 6.85931 19.1698 6.64493 19.5504 6.2644C19.9309 5.88388 20.1453 5.36798 20.1461 4.82983C20.1453 4.29169 19.9309 3.77579 19.5504 3.39526C19.1698 3.01474 18.6539 2.80084 18.1158 2.80005C17.5775 2.80058 17.0615 3.01471 16.6807 3.39526C16.3 3.77582 16.0868 4.29152 16.086 4.82983Z"
              fill="#0B032D"/>
    </g>
    <defs>
        <clipPath id="clip0_3015_1078">
            <rect width="24" height="24" fill="white"/>
        </clipPath>
    </defs>
</svg>
