<svg width="24" height="24" viewBox="0 0 24 24" fill="none" xmlns="http://www.w3.org/2000/svg">
    <g clip-path="url(#clip0_3002_257)">
        <path d="M12 22.75C9.87386 22.75 7.79545 22.1195 6.02762 20.9383C4.2598 19.7571 2.88194 18.0782 2.0683 16.1139C1.25466 14.1495 1.04177 11.9881 1.45656 9.90278C1.87135 7.81749 2.89519 5.90202 4.39861 4.39861C5.90202 2.89519 7.81749 1.87135 9.90278 1.45656C11.9881 1.04177 14.1495 1.25466 16.1139 2.0683C18.0782 2.88194 19.7571 4.2598 20.9383 6.02762C22.1195 7.79545 22.75 9.87386 22.75 12C22.7476 14.8504 21.6143 17.5833 19.5988 19.5988C17.5833 21.6143 14.8504 22.7476 12 22.75Z"
              fill="#C4C2CC"/>
        <path d="M12 5.25C12.3042 5.24982 12.6016 5.33901 12.8555 5.50649C13.1094 5.67396 13.3085 5.91234 13.428 6.192L14.733 9.238C14.7394 9.24866 14.7493 9.25679 14.761 9.261L17.808 10.571C18.0876 10.6908 18.326 10.89 18.4934 11.1439C18.6609 11.3978 18.7502 11.6953 18.7502 11.9995C18.7502 12.3037 18.6609 12.6012 18.4934 12.8551C18.326 13.1091 18.0876 13.3082 17.808 13.428L14.761 14.733C14.7485 14.7385 14.7385 14.7485 14.733 14.761L13.428 17.808C13.3083 18.0876 13.1091 18.326 12.8551 18.4934C12.6012 18.6609 12.3037 18.7502 11.9995 18.7502C11.6953 18.7502 11.3978 18.6609 11.1439 18.4934C10.89 18.326 10.6908 18.0876 10.571 17.808L9.26101 14.761C9.25556 14.7485 9.24556 14.7385 9.23301 14.733L6.19201 13.428C5.91239 13.3082 5.67406 13.1091 5.50658 12.8551C5.33909 12.6012 5.24982 12.3037 5.24982 11.9995C5.24982 11.6953 5.33909 11.3978 5.50658 11.1439C5.67406 10.89 5.91239 10.6908 6.19201 10.571L9.23701 9.261C9.24739 9.25579 9.2558 9.24737 9.26101 9.237L10.571 6.192C10.6906 5.91218 10.8898 5.6737 11.1439 5.50621C11.398 5.33873 11.6957 5.24963 12 5.25Z"
              fill="#0B032D"/>
    </g>
    <defs>
        <clipPath id="clip0_3002_257">
            <rect width="24" height="24" fill="white"/>
        </clipPath>
    </defs>
</svg>
