<svg width="20" height="20" viewBox="0 0 20 20" fill="none" xmlns="http://www.w3.org/2000/svg">
    <path d="M17.9667 8.94997L16.8333 7.6333C16.6167 7.3833 16.4417 6.91663 16.4417 6.5833V5.16663C16.4417 4.2833 15.7167 3.5583 14.8333 3.5583H13.4167C13.0917 3.5583 12.6167 3.3833 12.3667 3.16663L11.05 2.0333C10.475 1.54163 9.53334 1.54163 8.95 2.0333L7.64167 3.17497C7.39167 3.3833 6.91667 3.5583 6.59167 3.5583H5.15C4.26667 3.5583 3.54167 4.2833 3.54167 5.16663V6.59163C3.54167 6.91663 3.36667 7.3833 3.15834 7.6333L2.03334 8.9583C1.55 9.5333 1.55 10.4666 2.03334 11.0416L3.15834 12.3666C3.36667 12.6166 3.54167 13.0833 3.54167 13.4083V14.8333C3.54167 15.7166 4.26667 16.4416 5.15 16.4416H6.59167C6.91667 16.4416 7.39167 16.6166 7.64167 16.8333L8.95834 17.9666C9.53334 18.4583 10.475 18.4583 11.0583 17.9666L12.375 16.8333C12.625 16.6166 13.0917 16.4416 13.425 16.4416H14.8417C15.725 16.4416 16.45 15.7166 16.45 14.8333V13.4166C16.45 13.0916 16.625 12.6166 16.8417 12.3666L17.975 11.05C18.4583 10.475 18.4583 9.52497 17.9667 8.94997ZM13.4667 8.42497L9.44167 12.45C9.325 12.5666 9.16667 12.6333 9 12.6333C8.83334 12.6333 8.675 12.5666 8.55834 12.45L6.54167 10.4333C6.3 10.1916 6.3 9.79163 6.54167 9.54997C6.78334 9.3083 7.18334 9.3083 7.425 9.54997L9 11.125L12.5833 7.54163C12.825 7.29997 13.225 7.29997 13.4667 7.54163C13.7083 7.7833 13.7083 8.1833 13.4667 8.42497Z"
          fill="#24099A"/>
</svg>
